<?xml version="1.0" encoding="UTF-8"?>
<!DOCTYPE svg PUBLIC "-//W3C//DTD SVG 1.1//EN" "http://www.w3.org/Graphics/SVG/1.1/DTD/svg11.dtd">
<!-- Creator: CorelDRAW 2023 -->
<svg xmlns="http://www.w3.org/2000/svg" xml:space="preserve" width="18.703mm" height="17.491mm" version="1.1" style="shape-rendering:geometricPrecision; text-rendering:geometricPrecision; image-rendering:optimizeQuality; fill-rule:evenodd; clip-rule:evenodd"
viewBox="0 0 1870.3 1749.1"
 xmlns:xlink="http://www.w3.org/1999/xlink"
 xmlns:xodm="http://www.corel.com/coreldraw/odm/2003">
 <defs>
  <style type="text/css">
   <![CDATA[
    .fil7 {fill:#009FE3;fill-rule:nonzero}
    .fil9 {fill:#00A19A;fill-rule:nonzero}
    .fil1 {fill:#302682;fill-rule:nonzero}
    .fil5 {fill:#3AAA35;fill-rule:nonzero}
    .fil3 {fill:#662382;fill-rule:nonzero}
    .fil6 {fill:#E30613;fill-rule:nonzero}
    .fil8 {fill:#E6007E;fill-rule:nonzero}
    .fil2 {fill:#E84E1A;fill-rule:nonzero}
    .fil4 {fill:#F29100;fill-rule:nonzero}
    .fil0 {fill:white;fill-rule:nonzero}
   ]]>
  </style>
 </defs>
 <g id="Camada_x0020_1">
  <metadata id="CorelCorpID_0Corel-Layer"/>
  <polygon class="fil0" points="1865.63,1755.09 -4.64,1755.09 -4.64,5.97 1865.63,5.97 "/>
  <g id="_2038946553984">
   <polygon class="fil1" points="250.46,1257.02 250.46,1390.79 250.46,1452.65 684.87,1452.65 684.87,1388.69 537.43,1388.69 537.43,1288.61 684.87,1288.61 684.87,1211.76 537.43,1211.76 537.43,1111.68 684.87,1111.68 684.87,1018.23 250.46,1018.23 "/>
   <polygon class="fil1" points="250.46,1257.02 250.46,1390.79 250.46,1452.65 684.87,1452.65 684.87,1388.69 537.43,1388.69 537.43,1288.61 684.87,1288.61 684.87,1211.76 537.43,1211.76 537.43,1111.68 684.87,1111.68 684.87,1018.23 250.46,1018.23 "/>
   <polygon class="fil2" points="1177.98,1257.02 1177.98,1390.79 1177.98,1452.65 1612.39,1452.65 1612.39,1388.69 1464.95,1388.69 1464.95,1288.61 1612.39,1288.61 1612.39,1211.76 1464.95,1211.76 1464.95,1111.68 1612.39,1111.68 1612.39,1018.23 1177.98,1018.23 "/>
   <polygon class="fil2" points="1177.98,1257.02 1177.98,1390.79 1177.98,1452.65 1612.39,1452.65 1612.39,1388.69 1464.95,1388.69 1464.95,1288.61 1612.39,1288.61 1612.39,1211.76 1464.95,1211.76 1464.95,1111.68 1612.39,1111.68 1612.39,1018.23 1177.98,1018.23 "/>
   <polygon class="fil3" points="495.31,407.14 495.31,219.43 683.03,219.43 683.03,96.08 248.62,96.08 248.62,530.49 683.03,530.49 683.03,407.14 "/>
   <polygon class="fil3" points="495.31,407.14 495.31,219.43 683.03,219.43 683.03,96.08 248.62,96.08 248.62,530.49 683.03,530.49 683.03,407.14 "/>
   <polygon class="fil4" points="1023.44,96.08 1023.44,283.8 835.73,283.8 835.73,96.08 712.38,96.08 712.38,219.43 712.38,407.14 712.38,530.49 1146.79,530.49 1146.79,96.08 "/>
   <polygon class="fil4" points="1023.44,96.08 1023.44,283.8 835.73,283.8 835.73,96.08 712.38,96.08 712.38,219.43 712.38,407.14 712.38,530.49 1146.79,530.49 1146.79,96.08 "/>
   <polygon class="fil5" points="1610.55,304.65 1401.98,304.65 1401.98,96.08 1176.14,96.08 1176.14,530.49 1610.55,530.49 1610.55,352.39 "/>
   <polygon class="fil5" points="1610.55,304.65 1401.98,304.65 1401.98,96.08 1176.14,96.08 1176.14,530.49 1610.55,530.49 1610.55,352.39 "/>
   <polygon class="fil6" points="684.87,810.78 684.87,554.47 250.46,554.47 250.46,763.05 250.46,810.78 397.9,810.78 397.9,988.88 537.43,988.88 537.43,810.78 "/>
   <polygon class="fil6" points="684.87,810.78 684.87,554.47 250.46,554.47 250.46,763.05 250.46,810.78 397.9,810.78 397.9,988.88 537.43,988.88 537.43,810.78 "/>
   <polygon class="fil7" points="1025.28,554.47 1025.28,742.19 837.57,742.19 837.57,554.47 714.22,554.47 714.22,810.78 714.22,988.88 1148.63,988.88 1148.63,554.47 "/>
   <polygon class="fil7" points="1025.28,554.47 1025.28,742.19 837.57,742.19 837.57,554.47 714.22,554.47 714.22,810.78 714.22,988.88 1148.63,988.88 1148.63,554.47 "/>
   <polygon class="fil8" points="1481.09,793.25 1610.55,793.25 1610.55,554.47 1176.14,554.47 1176.14,988.88 1355.95,988.88 1355.95,855.11 1489.72,988.88 1610.55,988.88 1610.55,927.03 "/>
   <polygon class="fil8" points="1481.09,793.25 1610.55,793.25 1610.55,554.47 1176.14,554.47 1176.14,988.88 1355.95,988.88 1355.95,855.11 1489.72,988.88 1610.55,988.88 1610.55,927.03 "/>
   <polygon class="fil9" points="714.22,1017.98 714.22,1274.29 714.22,1290.24 860.56,1290.24 860.56,1384.63 714.22,1384.63 714.22,1452.39 1148.63,1452.39 1148.63,1211.76 1000.45,1211.76 1000.45,1111.48 1148.63,1111.48 1148.63,1017.98 "/>
   <polygon class="fil9" points="714.22,1017.98 714.22,1274.29 714.22,1290.24 860.56,1290.24 860.56,1384.63 714.22,1384.63 714.22,1452.39 1148.63,1452.39 1148.63,1211.76 1000.45,1211.76 1000.45,1111.48 1148.63,1111.48 1148.63,1017.98 "/>
   <path class="fil1" d="M386.23 1520.4l0 76.33c0,23.08 8.87,34.71 24.06,34.71 15.78,0 24.45,-11.04 24.45,-34.71l0 -76.33 29.99 0 0 74.55c0,41.03 -20.72,60.55 -55.42,60.55 -33.53,0 -53.06,-18.73 -53.06,-60.94l0 -74.16 29.98 0z"/>
   <path class="fil1" d="M386.23 1520.4l0 76.33c0,23.08 8.87,34.71 24.06,34.71 15.78,0 24.45,-11.04 24.45,-34.71l0 -76.33 29.99 0 0 74.55c0,41.03 -20.72,60.55 -55.42,60.55 -33.53,0 -53.06,-18.73 -53.06,-60.94l0 -74.16 29.98 0z"/>
   <path class="fil1" d="M490.75 1522.18c7.89,-1.37 23.66,-2.76 38.85,-2.76 18.34,0 29.59,1.78 39.45,7.49 9.27,4.93 15.77,14.01 15.77,26.24 0,11.63 -6.91,22.48 -21.89,28.2l0 0.39c15.19,3.94 26.43,15.58 26.43,32.54 0,12.23 -5.52,21.7 -13.81,28.4 -9.67,7.69 -25.83,12.03 -52.26,12.03 -14.79,0 -25.84,-0.98 -32.54,-1.97l0 -130.56zm29.78 50.88l0 0 9.86 0c15.98,0 24.26,-6.51 24.26,-16.37 0,-10.06 -7.69,-15.38 -21.3,-15.38 -6.71,0 -10.45,0.39 -12.82,0.79l0 30.96zm0 58.97l0 0c2.96,0.4 6.5,0.4 11.63,0.4 13.61,0 25.64,-5.32 25.64,-19.33 0,-13.22 -12.03,-18.54 -27.02,-18.54l-10.25 0 0 37.47z"/>
   <path class="fil1" d="M490.75 1522.18c7.89,-1.37 23.66,-2.76 38.85,-2.76 18.34,0 29.59,1.78 39.45,7.49 9.27,4.93 15.77,14.01 15.77,26.24 0,11.63 -6.91,22.48 -21.89,28.2l0 0.39c15.19,3.94 26.43,15.58 26.43,32.54 0,12.23 -5.52,21.7 -13.81,28.4 -9.67,7.69 -25.83,12.03 -52.26,12.03 -14.79,0 -25.84,-0.98 -32.54,-1.97l0 -130.56zm29.78 50.88l0 0 9.86 0c15.98,0 24.26,-6.51 24.26,-16.37 0,-10.06 -7.69,-15.38 -21.3,-15.38 -6.71,0 -10.45,0.39 -12.82,0.79l0 30.96zm0 58.97l0 0c2.96,0.4 6.5,0.4 11.63,0.4 13.61,0 25.64,-5.32 25.64,-19.33 0,-13.22 -12.03,-18.54 -27.02,-18.54l-10.25 0 0 37.47z"/>
   <polygon class="fil1" points="688.93,1597.12 640.02,1597.12 640.02,1628.68 694.66,1628.68 694.66,1653.33 610.05,1653.33 610.05,1520.4 691.9,1520.4 691.9,1545.06 640.02,1545.06 640.02,1572.67 688.93,1572.67 "/>
   <polygon class="fil1" points="688.93,1597.12 640.02,1597.12 640.02,1628.68 694.66,1628.68 694.66,1653.33 610.05,1653.33 610.05,1520.4 691.9,1520.4 691.9,1545.06 640.02,1545.06 640.02,1572.67 688.93,1572.67 "/>
   <path class="fil1" d="M715.15 1522.18c9.67,-1.57 23.87,-2.76 40.04,-2.76 19.72,0 33.53,2.96 42.99,10.45 8.09,6.31 12.43,15.78 12.43,28.01 0,16.76 -12.03,28.4 -23.47,32.54l0 0.6c9.27,3.74 14.4,12.42 17.75,24.65 4.14,15.18 8.09,32.53 10.65,37.66l-30.77 0c-1.97,-3.94 -5.32,-14.59 -9.07,-30.96 -3.74,-16.76 -9.47,-21.1 -21.89,-21.3l-8.87 0 0 52.26 -29.79 0 0 -131.15zm29.79 57.2l0 0 11.83 0c14.99,0 23.86,-7.5 23.86,-19.13 0,-12.03 -8.28,-18.35 -22.09,-18.35 -7.29,0 -11.43,0.39 -13.6,0.99l0 36.49z"/>
   <path class="fil1" d="M715.15 1522.18c9.67,-1.57 23.87,-2.76 40.04,-2.76 19.72,0 33.53,2.96 42.99,10.45 8.09,6.31 12.43,15.78 12.43,28.01 0,16.76 -12.03,28.4 -23.47,32.54l0 0.6c9.27,3.74 14.4,12.42 17.75,24.65 4.14,15.18 8.09,32.53 10.65,37.66l-30.77 0c-1.97,-3.94 -5.32,-14.59 -9.07,-30.96 -3.74,-16.76 -9.47,-21.1 -21.89,-21.3l-8.87 0 0 52.26 -29.79 0 0 -131.15zm29.79 57.2l0 0 11.83 0c14.99,0 23.86,-7.5 23.86,-19.13 0,-12.03 -8.28,-18.35 -22.09,-18.35 -7.29,0 -11.43,0.39 -13.6,0.99l0 36.49z"/>
   <polygon class="fil1" points="832.3,1520.4 862.27,1520.4 862.27,1628.09 915.13,1628.09 915.13,1653.33 832.3,1653.33 "/>
   <polygon class="fil1" points="832.3,1520.4 862.27,1520.4 862.27,1628.09 915.13,1628.09 915.13,1653.33 832.3,1653.33 "/>
   <path class="fil1" d="M965.01 1619.21l-9.47 34.12 -30.95 0 40.42 -132.93 39.45 0 41.41 132.93 -32.54 0 -10.26 -34.12 -38.06 0zm31.95 -130.16l0 0 19.92 24.26 -21.1 0 -9.86 -12.24 -0.4 0 -9.86 12.24 -20.9 0 19.72 -24.26 22.48 0zm1.77 107.68l0 0 -8.27 -28.2c-2.37,-7.89 -4.74,-17.75 -6.71,-25.64l-0.4 0c-1.97,7.89 -3.94,17.95 -6.11,25.64l-7.89 28.2 29.38 0z"/>
   <path class="fil1" d="M965.01 1619.21l-9.47 34.12 -30.95 0 40.42 -132.93 39.45 0 41.41 132.93 -32.54 0 -10.26 -34.12 -38.06 0zm31.95 -130.16l0 0 19.92 24.26 -21.1 0 -9.86 -12.24 -0.4 0 -9.86 12.24 -20.9 0 19.72 -24.26 22.48 0zm1.77 107.68l0 0 -8.27 -28.2c-2.37,-7.89 -4.74,-17.75 -6.71,-25.64l-0.4 0c-1.97,7.89 -3.94,17.95 -6.11,25.64l-7.89 28.2 29.38 0z"/>
   <path class="fil1" d="M1063.41 1653.33l0 -132.93 35.1 0 27.62 48.72c7.89,14 15.58,30.57 21.69,45.55l0.4 0c-1.78,-17.55 -2.37,-35.49 -2.37,-55.61l0 -38.66 27.61 0 0 132.93 -31.56 0 -28.39 -51.28c-7.9,-14.2 -16.76,-31.35 -23.08,-46.93l-0.79 0c0.99,17.75 1.38,36.48 1.38,58.18l0 40.03 -27.61 0z"/>
   <path class="fil1" d="M1063.41 1653.33l0 -132.93 35.1 0 27.62 48.72c7.89,14 15.58,30.57 21.69,45.55l0.4 0c-1.78,-17.55 -2.37,-35.49 -2.37,-55.61l0 -38.66 27.61 0 0 132.93 -31.56 0 -28.39 -51.28c-7.9,-14.2 -16.76,-31.35 -23.08,-46.93l-0.79 0c0.99,17.75 1.38,36.48 1.38,58.18l0 40.03 -27.61 0z"/>
   <path class="fil1" d="M1199.47 1522.38c11.05,-1.77 25.45,-2.96 40.44,-2.96 25.43,0 42,4.73 54.63,14.2 13.8,10.25 22.48,26.63 22.48,50.1 0,25.43 -9.27,42.99 -21.89,53.84 -14.01,11.64 -35.5,17.15 -61.54,17.15 -15.57,0 -26.82,-0.98 -34.12,-1.97l0 -130.36zm29.99 108.27l0 0c2.56,0.59 6.89,0.59 10.45,0.59 27.41,0.2 45.36,-14.79 45.36,-46.54 0,-27.61 -16.18,-42.21 -42.21,-42.21 -6.5,0 -11.04,0.6 -13.6,1.19l0 86.97z"/>
   <path class="fil1" d="M1199.47 1522.38c11.05,-1.77 25.45,-2.96 40.44,-2.96 25.43,0 42,4.73 54.63,14.2 13.8,10.25 22.48,26.63 22.48,50.1 0,25.43 -9.27,42.99 -21.89,53.84 -14.01,11.64 -35.5,17.15 -61.54,17.15 -15.57,0 -26.82,-0.98 -34.12,-1.97l0 -130.36zm29.99 108.27l0 0c2.56,0.59 6.89,0.59 10.45,0.59 27.41,0.2 45.36,-14.79 45.36,-46.54 0,-27.61 -16.18,-42.21 -42.21,-42.21 -6.5,0 -11.04,0.6 -13.6,1.19l0 86.97z"/>
   <polygon class="fil1" points="1366.9,1520.4 1366.9,1653.33 1336.93,1653.33 1336.93,1520.4 "/>
   <polygon class="fil1" points="1366.9,1520.4 1366.9,1653.33 1336.93,1653.33 1336.93,1520.4 "/>
   <path class="fil1" d="M1423.9 1619.21l-9.47 34.12 -30.96 0 40.43 -132.93 39.44 0 41.42 132.93 -32.54 0 -10.26 -34.12 -38.06 0zm33.72 -22.48l0 0 -8.28 -28.2c-2.36,-7.89 -4.74,-17.75 -6.7,-25.64l-0.4 0c-1.97,7.89 -3.94,17.95 -6.11,25.64l-7.89 28.2 29.38 0z"/>
   <path class="fil1" d="M1423.9 1619.21l-9.47 34.12 -30.96 0 40.43 -132.93 39.44 0 41.42 132.93 -32.54 0 -10.26 -34.12 -38.06 0zm33.72 -22.48l0 0 -8.28 -28.2c-2.36,-7.89 -4.74,-17.75 -6.7,-25.64l-0.4 0c-1.97,7.89 -3.94,17.95 -6.11,25.64l-7.89 28.2 29.38 0z"/>
  </g>
 </g>
</svg>
